<?xml version="1.0" standalone="no"?>
<!DOCTYPE svg PUBLIC "-//W3C//DTD SVG 20010904//EN"
 "http://www.w3.org/TR/2001/REC-SVG-20010904/DTD/svg10.dtd">
<svg version="1.0" xmlns="http://www.w3.org/2000/svg"
 width="556.000000pt" height="556.000000pt" viewBox="0 0 556.000000 556.000000"
 preserveAspectRatio="xMidYMid meet">
<metadata>
Created by potrace 1.14, written by Peter Selinger 2001-2017
</metadata>
<g transform="translate(0.000000,556.000000) scale(0.100000,-0.100000)"
fill="#000000" stroke="none">
<path d="M2705 5455 c-85 -17 -159 -54 -251 -123 -94 -71 -159 -139 -210 -218
-45 -70 -104 -184 -104 -202 0 -7 -4 -20 -9 -30 -5 -9 -14 -35 -19 -57 -50
-195 -41 -333 29 -472 l32 -63 -79 -87 c-73 -81 -167 -195 -204 -248 -93 -133
-250 -381 -250 -394 0 -3 -11 -22 -24 -42 -41 -60 -182 -342 -221 -440 -20
-52 -40 -103 -45 -114 -5 -11 -14 -45 -20 -75 -6 -30 -16 -69 -21 -86 -12 -40
-12 -279 0 -318 6 -17 16 -60 25 -96 24 -106 94 -271 126 -300 3 -3 18 -23 35
-45 60 -81 185 -180 339 -270 14 -8 16 -15 7 -36 -9 -24 -18 -28 -83 -39 -181
-31 -319 -157 -367 -335 -16 -60 -13 -203 5 -266 14 -46 28 -66 97 -132 l81
-79 4 -151 c2 -84 -1 -177 -6 -207 -19 -102 -49 -205 -76 -257 -33 -66 -33
-73 4 -73 26 0 32 6 46 40 14 34 20 40 46 40 29 0 30 -2 25 -34 l-5 -34 171
-7 c95 -4 190 -5 212 -3 l40 3 -4 150 c-2 119 1 166 14 220 20 79 47 125 75
125 23 0 68 -52 76 -88 3 -15 10 -43 15 -62 5 -19 9 -69 10 -110 0 -41 6 -111
12 -155 l12 -80 991 -3 991 -2 7 61 c3 34 6 86 6 115 0 61 12 69 30 21 20 -52
62 -140 83 -169 l18 -28 233 0 c128 0 235 3 239 6 3 3 -5 23 -18 44 -123 194
-210 412 -250 624 l-15 80 58 56 c144 139 178 355 87 547 -81 170 -281 315
-457 330 -65 6 -66 6 -56 29 6 13 14 24 18 24 26 0 180 250 180 292 0 8 4 18
9 24 9 10 23 65 41 159 13 69 8 408 -8 495 -19 100 -41 180 -79 290 -54 151
-140 334 -194 412 -11 14 -19 29 -19 32 0 6 -68 110 -131 201 -92 132 -342
403 -464 505 -116 96 -255 184 -348 219 -21 8 -27 17 -27 40 0 16 4 32 8 35
15 9 52 206 52 275 0 25 -7 86 -15 135 -36 222 -174 370 -376 405 -36 6 -68
11 -70 10 -2 -1 -31 -7 -64 -14z m-121 -171 c24 -9 19 -49 -6 -66 -25 -16 -86
-28 -105 -21 -41 15 25 83 89 92 3 1 13 -2 22 -5z m-144 -124 c0 -6 -8 -23
-18 -38 -11 -15 -30 -45 -44 -67 -14 -22 -38 -47 -54 -55 -16 -8 -41 -25 -56
-39 -23 -21 -28 -33 -28 -74 0 -34 7 -58 21 -79 19 -26 21 -39 16 -106 -6 -93
-22 -134 -51 -130 -43 6 -61 180 -31 303 27 114 111 246 180 284 26 13 65 14
65 1z m-43 -226 c6 -19 -27 -44 -58 -44 -34 0 -48 22 -28 46 14 17 80 16 86
-2z m240 -100 c-3 -3 -12 -4 -19 -1 -8 3 -5 6 6 6 11 1 17 -2 13 -5z m533
-374 c14 -11 30 -20 36 -20 6 0 25 -7 42 -16 31 -15 31 -16 15 -42 -9 -15 -25
-35 -34 -44 -9 -9 -19 -23 -22 -30 -3 -10 -12 -9 -38 6 -19 10 -52 28 -74 40
-22 11 -42 22 -44 23 -7 5 17 50 41 76 28 31 46 32 78 7z m-1240 -587 c-13
-21 -34 -58 -48 -83 -13 -25 -28 -50 -33 -56 -5 -5 -45 -84 -89 -175 -45 -90
-86 -172 -91 -182 -21 -39 -95 -251 -120 -347 -46 -174 -58 -435 -26 -563 41
-163 105 -253 297 -416 97 -82 95 -79 58 -83 -31 -3 -33 -6 -38 -46 l-5 -42
-39 21 c-85 45 -200 147 -278 247 -34 42 -105 188 -116 237 -35 151 -42 283
-21 387 25 128 31 154 39 173 5 11 16 41 24 66 8 25 32 84 54 130 21 46 45
100 52 119 7 19 17 40 20 45 4 6 38 69 75 140 37 72 70 132 74 135 4 3 22 32
41 65 33 59 108 175 119 185 4 3 17 22 31 42 33 49 49 49 20 1z m1217 5 c64
-24 146 -100 163 -154 17 -51 7 -120 -21 -151 -43 -45 -127 -76 -279 -103 -36
-6 -83 -15 -105 -20 -22 -5 -83 -14 -135 -20 -52 -6 -131 -18 -175 -25 -44 -8
-145 -20 -226 -26 -231 -19 -327 7 -384 104 -32 56 -58 143 -48 161 25 42 80
90 135 117 35 16 70 34 78 38 8 4 38 13 65 20 28 6 88 20 135 31 79 19 158 28
440 50 156 11 290 4 357 -22z m-237 -1125 c0 -21 7 -65 15 -98 8 -33 14 -94
15 -135 0 -96 -21 -136 -77 -145 -21 -4 -54 -11 -73 -16 -24 -6 -36 -5 -42 4
-4 6 -8 96 -8 200 l0 187 26 11 c22 8 65 17 137 28 4 0 7 -16 7 -36z m-202
-190 c-3 -180 -5 -198 -21 -201 -30 -6 -82 57 -106 129 -17 53 -21 85 -19 160
l3 94 50 6 c28 3 60 7 73 7 l22 2 -2 -197z m-737 -650 c61 -66 103 -122 96
-130 -6 -6 -38 6 -134 48 -53 23 -66 42 -38 53 9 3 15 19 15 41 0 19 4 35 9
35 4 0 28 -21 52 -47z m-61 -191 c0 -5 11 -14 25 -20 22 -10 25 -18 25 -59 0
-94 78 -201 187 -258 21 -10 50 -27 65 -37 14 -10 35 -18 46 -18 12 0 24 -4
27 -10 3 -5 15 -10 26 -10 10 0 19 -4 19 -9 0 -5 17 -11 38 -14 364 -54 441
-57 727 -26 105 12 210 23 235 26 25 2 54 8 65 12 42 17 92 31 112 31 12 0 38
9 60 19 21 11 64 27 95 36 31 9 62 23 69 31 6 8 17 14 24 14 7 0 38 20 68 45
31 25 60 45 66 45 6 0 11 -16 11 -35 0 -24 -5 -35 -14 -35 -8 0 -16 -4 -18 -8
-1 -5 -47 -30 -101 -57 -54 -27 -100 -52 -103 -57 -3 -4 -14 -8 -25 -8 -10 0
-27 -4 -37 -9 -9 -5 -45 -15 -79 -22 -35 -7 -63 -16 -63 -20 0 -7 -28 -11
-157 -25 -29 -3 -53 -10 -53 -14 0 -12 -180 -21 -435 -21 -247 0 -395 8 -395
22 0 5 -22 9 -49 9 -28 0 -53 5 -56 10 -3 6 -17 10 -29 10 -13 0 -37 7 -52 15
-16 8 -46 18 -66 21 -21 4 -38 10 -38 15 0 5 -8 9 -17 9 -10 0 -40 17 -67 38
-27 20 -56 42 -65 47 -42 26 -89 104 -92 151 -5 76 1 174 11 174 6 0 10 -4 10
-8z m-290 -145 c0 -1 -18 -23 -40 -47 -22 -24 -47 -60 -56 -79 -9 -20 -23 -49
-31 -66 -16 -32 -20 -236 -6 -258 13 -20 31 -77 24 -77 -10 0 -57 100 -76 161
-17 54 -17 60 0 115 17 60 24 78 51 126 25 46 134 147 134 125z m539 -626 c25
-35 26 -59 5 -89 -19 -28 -56 -28 -101 -1 -45 28 -59 63 -38 95 13 20 24 24
65 24 42 0 51 -4 69 -29z m-501 -473 c-5 -111 -17 -148 -49 -148 -18 0 -20 4
-13 48 3 26 10 52 15 57 4 6 11 41 15 78 5 50 11 67 22 67 12 0 14 -16 10
-102z"/>
</g>
</svg>
